<svg width="1210" height="320" viewBox="0 0 1210 320" fill="none" xmlns="http://www.w3.org/2000/svg">
<circle cx="160" cy="160" r="160" fill="#DC5E15"/>
<path d="M165.927 43.0056C173.048 43.155 180.17 43.3152 187.292 43.4864C201.796 43.1615 212.363 59.9499 206.122 72.4344C195.461 95.556 184.669 118.623 173.748 141.635C169.475 150.64 165.181 159.636 160.868 168.624C160.433 169.53 159.673 170.253 158.727 170.624C157.781 170.995 156.732 170.984 155.804 170.592C154.876 170.2 154.139 169.456 153.752 168.522C153.364 167.588 153.361 166.541 153.715 165.602C157.234 156.278 160.772 146.962 164.33 137.655C173.424 113.871 182.647 90.1411 191.999 66.4664C193.284 63.2229 190.293 59.6387 187.292 60.0446C180.17 60.2158 173.048 60.3759 165.927 60.5253C164.342 60.6147 162.956 61.7285 162.521 63.1134C147.753 101.644 132.64 140.038 117.184 178.293C116.984 178.808 116.961 179.187 117.039 179.624C117.132 180.144 117.47 180.723 117.905 181.08C118.351 181.439 118.766 181.611 119.437 181.629C151.319 181.709 183.202 182.008 215.085 182.524C230.95 182.037 242.257 201.055 234.487 214.398C231.211 220.514 227.925 226.625 224.63 232.731C221.04 239.685 213.359 244.185 205.629 243.994C173.696 243.199 141.763 242.185 109.83 240.952C99.8208 240.566 89.8119 240.158 79.803 239.729C78.7943 239.685 77.8269 239.273 77.1136 238.553C76.4004 237.833 76 236.868 76 235.866C76 234.864 76.4004 233.899 77.1136 233.179C77.8269 232.459 78.7943 232.047 79.803 232.003C89.8119 231.574 99.8208 231.166 109.83 230.78C141.763 229.547 173.696 228.534 205.629 227.738C207.332 227.635 208.843 226.523 209.44 225.075C212.449 218.824 215.466 212.578 218.494 206.337C219.688 203.917 217.417 200.959 215.085 201.291C183.202 201.807 151.319 202.105 119.437 202.186C108.676 202.428 98.5287 194.033 96.684 183.503C95.8338 179.19 96.3344 174.567 97.9665 170.598C113.503 132.375 129.384 94.2894 145.609 56.3415C148.871 48.2903 157.325 42.799 165.927 43.0056Z" fill="white"/>
<path d="M414.677 252.104V77.5116H473.068C487.941 77.5116 501.132 79.9688 512.642 84.8832C524.282 89.6684 534.046 96.1994 541.935 104.476C549.953 112.753 556.032 122.13 560.17 132.605C564.309 142.951 566.378 153.686 566.378 164.808C566.378 175.93 564.309 186.729 560.17 197.204C556.032 207.551 549.953 216.862 541.935 225.139C534.046 233.416 524.282 240.012 512.642 244.926C501.132 249.711 487.941 252.104 473.068 252.104H414.677ZM442.612 226.497H470.352C481.992 226.497 491.95 224.751 500.227 221.259C508.633 217.638 515.488 212.853 520.79 206.904C526.222 200.955 530.231 194.359 532.818 187.117C535.404 179.745 536.697 172.309 536.697 164.808C536.697 157.307 535.404 149.87 532.818 142.499C530.231 135.127 526.222 128.467 520.79 122.518C515.488 116.569 508.633 111.848 500.227 108.356C491.95 104.864 481.992 103.118 470.352 103.118H442.612V226.497Z" fill="white"/>
<path d="M638.082 255.208C629.935 255.208 622.24 253.203 614.997 249.194C607.884 245.185 602.064 239.365 597.538 231.735C593.141 223.975 590.942 214.728 590.942 203.994V135.709H618.295V200.308C618.295 208.197 620.623 215.181 625.279 221.259C630.064 227.208 636.724 230.183 645.26 230.183C649.916 230.183 654.313 229.084 658.451 226.885C662.59 224.557 665.888 221.195 668.345 216.797C670.931 212.4 672.225 207.033 672.225 200.696V135.709H699.578V252.104H674.553V236.585C670.414 242.534 665.112 247.125 658.645 250.358C652.308 253.591 645.454 255.208 638.082 255.208Z" fill="white"/>
<path d="M782.248 254.432C774.101 254.432 766.535 252.88 759.551 249.776C752.568 246.543 746.424 242.146 741.122 236.585C735.82 231.023 731.616 224.622 728.513 217.379C725.538 210.008 724.051 202.183 724.051 193.906C724.051 185.629 725.538 177.87 728.513 170.627C731.616 163.256 735.82 156.789 741.122 151.228C746.424 145.667 752.568 141.335 759.551 138.231C766.535 134.998 774.101 133.381 782.248 133.381C790.008 133.381 797.186 134.804 803.781 137.649C810.377 140.494 816.067 144.374 820.852 149.288V135.709H845.101V252.104H820.852V238.524C816.067 243.439 810.377 247.319 803.781 250.164C797.186 253.009 790.008 254.432 782.248 254.432ZM785.546 230.183C792.142 230.183 798.091 228.566 803.393 225.333C808.696 221.971 812.899 217.573 816.003 212.142C819.236 206.71 820.852 200.631 820.852 193.906C820.852 187.181 819.236 181.103 816.003 175.671C812.899 170.239 808.696 165.907 803.393 162.674C798.091 159.311 792.142 157.63 785.546 157.63C778.95 157.63 773.001 159.311 767.699 162.674C762.396 165.907 758.129 170.239 754.895 175.671C751.792 181.103 750.24 187.181 750.24 193.906C750.24 200.631 751.792 206.71 754.895 212.142C758.129 217.573 762.396 221.971 767.699 225.333C773.001 228.566 778.95 230.183 785.546 230.183Z" fill="white"/>
<path d="M876.631 252.104V65.8721H903.984V252.104H876.631Z" fill="white"/>
<path d="M935.829 252.104V135.709H963.182V252.104H935.829ZM949.408 116.698C946.434 116.698 943.718 115.987 941.261 114.564C938.933 113.141 937.057 111.266 935.635 108.938C934.212 106.481 933.501 103.765 933.501 100.791C933.501 97.6867 934.212 94.9708 935.635 92.6429C937.057 90.1857 938.933 88.3104 941.261 87.0171C943.718 85.5945 946.434 84.8832 949.408 84.8832C952.512 84.8832 955.228 85.5945 957.556 87.0171C960.013 88.3104 961.888 90.1857 963.182 92.6429C964.604 94.9708 965.316 97.6867 965.316 100.791C965.316 103.765 964.604 106.481 963.182 108.938C961.888 111.266 960.013 113.141 957.556 114.564C955.228 115.987 952.512 116.698 949.408 116.698Z" fill="white"/>
<path d="M1028.98 255.208C1022.12 255.208 1014.94 253.979 1007.44 251.522C1000.07 249.065 993.992 245.444 989.207 240.658L996.384 213.306C1000.01 218.996 1004.86 223.716 1010.93 227.467C1017.14 231.088 1023.67 232.899 1030.53 232.899C1035.96 232.899 1039.97 231.735 1042.55 229.407C1045.27 226.95 1046.63 223.975 1046.63 220.483C1046.63 216.345 1045.21 213.37 1042.36 211.56C1039.64 209.749 1037.06 208.391 1034.6 207.486L1018.69 201.278C1015.46 199.985 1011.65 198.174 1007.25 195.846C1002.98 193.518 999.23 190.156 995.996 185.759C992.893 181.362 991.341 175.607 991.341 168.494C991.341 162.027 992.893 156.078 995.996 150.646C999.23 145.215 1003.76 140.882 1009.58 137.649C1015.52 134.286 1022.57 132.605 1030.72 132.605C1037.83 132.605 1044.82 133.834 1051.67 136.291C1058.53 138.748 1063.89 142.111 1067.77 146.379L1060.98 172.955C1058.4 169.205 1055.42 165.972 1052.06 163.256C1048.7 160.54 1045.08 158.471 1041.2 157.048C1037.45 155.625 1033.7 154.914 1029.95 154.914C1025.29 154.914 1021.67 156.078 1019.08 158.406C1016.62 160.734 1015.4 163.385 1015.4 166.36C1015.4 168.817 1016.24 171.08 1017.92 173.149C1019.73 175.219 1022.44 176.965 1026.07 178.387L1041.58 184.207C1045.21 185.5 1049.28 187.375 1053.81 189.833C1058.46 192.29 1062.47 195.782 1065.83 200.308C1069.2 204.705 1070.88 210.784 1070.88 218.543C1070.88 225.786 1069.07 232.187 1065.45 237.749C1061.82 243.18 1056.85 247.448 1050.51 250.552C1044.3 253.656 1037.12 255.208 1028.98 255.208Z" fill="white"/>
<path d="M1146.98 254.432C1138.83 254.432 1131.27 252.88 1124.29 249.776C1117.3 246.543 1111.16 242.146 1105.86 236.585C1100.55 231.023 1096.35 224.622 1093.25 217.379C1090.27 210.008 1088.79 202.183 1088.79 193.906C1088.79 185.629 1090.27 177.87 1093.25 170.627C1096.35 163.256 1100.55 156.789 1105.86 151.228C1111.16 145.667 1117.3 141.335 1124.29 138.231C1131.27 134.998 1138.83 133.381 1146.98 133.381C1154.74 133.381 1161.92 134.804 1168.52 137.649C1175.11 140.494 1180.8 144.374 1185.59 149.288V135.709H1209.84V252.104H1185.59V238.524C1180.8 243.439 1175.11 247.319 1168.52 250.164C1161.92 253.009 1154.74 254.432 1146.98 254.432ZM1150.28 230.183C1156.88 230.183 1162.83 228.566 1168.13 225.333C1173.43 221.971 1177.63 217.573 1180.74 212.142C1183.97 206.71 1185.59 200.631 1185.59 193.906C1185.59 187.181 1183.97 181.103 1180.74 175.671C1177.63 170.239 1173.43 165.907 1168.13 162.674C1162.83 159.311 1156.88 157.63 1150.28 157.63C1143.68 157.63 1137.74 159.311 1132.43 162.674C1127.13 165.907 1122.86 170.239 1119.63 175.671C1116.53 181.103 1114.97 187.181 1114.97 193.906C1114.97 200.631 1116.53 206.71 1119.63 212.142C1122.86 217.573 1127.13 221.971 1132.43 225.333C1137.74 228.566 1143.68 230.183 1150.28 230.183Z" fill="white"/>
</svg>
