<svg width="225" height="40" viewBox="0 0 225 40" fill="none" xmlns="http://www.w3.org/2000/svg">
<circle cx="20" cy="20" r="20" fill="#DC5E15"/>
<path d="M20.7409 5.3757C21.6311 5.39438 22.5213 5.4144 23.4115 5.43579C25.2245 5.39518 26.5453 7.49374 25.7653 9.0543C24.4326 11.9445 23.0836 14.8279 21.7185 17.7044C21.1843 18.83 20.6477 19.9545 20.1085 21.078C20.0542 21.1912 19.9591 21.2817 19.8409 21.328C19.7227 21.3743 19.5915 21.373 19.4755 21.324C19.3595 21.275 19.2674 21.182 19.219 21.0652C19.1705 20.9484 19.1701 20.8177 19.2144 20.7002C19.6542 19.5347 20.0965 18.3703 20.5413 17.2069C21.678 14.2339 22.8308 11.2676 23.9999 8.3083C24.1606 7.90286 23.7867 7.45484 23.4115 7.50558C22.5213 7.52697 21.6311 7.54699 20.7409 7.56567C20.5428 7.57684 20.3695 7.71606 20.3152 7.88917C18.4691 12.7055 16.58 17.5047 14.648 22.2866C14.623 22.3509 14.6202 22.3983 14.6299 22.4529C14.6415 22.518 14.6837 22.5904 14.7381 22.635C14.7939 22.6799 14.8458 22.7014 14.9296 22.7036C18.9149 22.7136 22.9003 22.7509 26.8856 22.8155C28.8687 22.7546 30.2821 25.1319 29.3109 26.7998C28.9013 27.5643 28.4906 28.3281 28.0787 29.0914C27.6301 29.9606 26.6699 30.5231 25.7036 30.4993C21.712 30.3998 17.7203 30.2731 13.7287 30.119C12.4776 30.0708 11.2265 30.0198 9.97537 29.9661C9.84929 29.9607 9.72836 29.9092 9.6392 29.8191C9.55005 29.7291 9.5 29.6086 9.5 29.4833C9.5 29.358 9.55005 29.2374 9.6392 29.1474C9.72836 29.0574 9.84929 29.0059 9.97537 29.0004C11.2265 28.9468 12.4776 28.8958 13.7287 28.8475C17.7203 28.6934 21.712 28.5667 25.7036 28.4673C25.9165 28.4544 26.1053 28.3154 26.18 28.1344C26.5561 27.3531 26.9333 26.5723 27.3117 25.7921C27.461 25.4897 27.1772 25.1199 26.8856 25.1613C22.9003 25.2259 18.9149 25.2632 14.9296 25.2732C13.5845 25.3035 12.3161 24.2541 12.0855 22.9379C11.9792 22.3988 12.0418 21.8209 12.2458 21.3248C14.1879 16.5469 16.173 11.7862 18.2011 7.04268C18.6089 6.03628 19.6656 5.34988 20.7409 5.3757Z" fill="white"/>
<path d="M50 20.0455V5.00285H57.7219V7.15896H52.4068V9.91679H57.2205V12.0228H52.4068V20.0455H50Z" fill="white"/>
<path d="M63.1012 20.2461C62.3992 20.2461 61.7474 20.1124 61.1457 19.845C60.544 19.5664 60.0147 19.1875 59.5578 18.7084C59.101 18.2293 58.7389 17.6777 58.4714 17.0537C58.2152 16.4186 58.087 15.7444 58.087 15.0313C58.087 14.3182 58.2152 13.6496 58.4714 13.0256C58.7389 12.3905 59.101 11.8333 59.5578 11.3542C60.0147 10.8751 60.544 10.5018 61.1457 10.2344C61.7474 9.95579 62.3992 9.8165 63.1012 9.8165C63.7698 9.8165 64.3882 9.93907 64.9565 10.1842C65.5248 10.4294 66.0151 10.7636 66.4273 11.1871V10.0171H68.5166V20.0455H66.4273V18.8755C66.0151 19.299 65.5248 19.6332 64.9565 19.8784C64.3882 20.1235 63.7698 20.2461 63.1012 20.2461ZM63.3854 18.1568C63.9537 18.1568 64.4662 18.0175 64.9231 17.739C65.3799 17.4493 65.7421 17.0704 66.0095 16.6024C66.2881 16.1344 66.4273 15.6107 66.4273 15.0313C66.4273 14.4519 66.2881 13.9282 66.0095 13.4602C65.7421 12.9922 65.3799 12.6189 64.9231 12.3403C64.4662 12.0506 63.9537 11.9058 63.3854 11.9058C62.8171 11.9058 62.3045 12.0506 61.8477 12.3403C61.3908 12.6189 61.0231 12.9922 60.7446 13.4602C60.4771 13.9282 60.3434 14.4519 60.3434 15.0313C60.3434 15.6107 60.4771 16.1344 60.7446 16.6024C61.0231 17.0704 61.3908 17.4493 61.8477 17.739C62.3045 18.0175 62.8171 18.1568 63.3854 18.1568Z" fill="white"/>
<path d="M71.2165 20.0455V4H73.5731V11.1035C73.9409 10.6689 74.3754 10.3346 74.8768 10.1006C75.3894 9.86664 75.9354 9.74965 76.5148 9.74965C77.228 9.74965 77.891 9.92236 78.5038 10.2678C79.1167 10.6132 79.6125 11.1146 79.9914 11.772C80.3813 12.4295 80.5763 13.2262 80.5763 14.1622V20.0455H78.2197V14.4797C78.2197 14.0229 78.1249 13.5995 77.9355 13.2095C77.7572 12.8195 77.4954 12.5075 77.15 12.2735C76.8157 12.0283 76.3978 11.9058 75.8964 11.9058C75.4953 11.9058 75.1164 12.0005 74.7598 12.1899C74.4033 12.3793 74.1136 12.6579 73.8907 13.0256C73.679 13.3933 73.5731 13.8669 73.5731 14.4463V20.0455H71.2165Z" fill="white"/>
<path d="M83.0861 20.0455V10.0171H85.2255V11.8055C85.5709 11.2149 86.0222 10.7525 86.5793 10.4182C87.1476 10.0839 87.8106 9.91679 88.5683 9.91679L89.1199 12.1063C89.0084 12.0729 88.8859 12.0506 88.7522 12.0395C88.6296 12.0172 88.507 12.006 88.3844 12.006C87.7939 12.006 87.2757 12.1342 86.83 12.3905C86.3955 12.6468 86.0556 13.02 85.8105 13.5103C85.5653 13.9895 85.4428 14.58 85.4428 15.282V20.0455H83.0861Z" fill="white"/>
<path d="M93.6431 20.3129C93.0525 20.3129 92.4341 20.2071 91.7878 19.9954C91.1527 19.7837 90.629 19.4717 90.2167 19.0594L90.8351 16.7027C91.1471 17.193 91.565 17.5997 92.0887 17.9228C92.6236 18.2348 93.1863 18.3908 93.7768 18.3908C94.2448 18.3908 94.5902 18.2905 94.8131 18.09C95.0471 17.8783 95.1641 17.622 95.1641 17.3211C95.1641 16.9646 95.0415 16.7083 94.7964 16.5523C94.5624 16.3963 94.3395 16.2793 94.1278 16.2013L92.7573 15.6664C92.4787 15.555 92.15 15.399 91.7711 15.1984C91.4034 14.9979 91.0803 14.7082 90.8017 14.3293C90.5343 13.9505 90.4006 13.4546 90.4006 12.8418C90.4006 12.2846 90.5343 11.772 90.8017 11.3041C91.0803 10.8361 91.4703 10.4628 91.9717 10.1842C92.4843 9.8945 93.0915 9.74965 93.7935 9.74965C94.4064 9.74965 95.0081 9.8555 95.5987 10.0672C96.1892 10.2789 96.6516 10.5686 96.9859 10.9363L96.4009 13.2262C96.1781 12.903 95.9218 12.6245 95.6321 12.3905C95.3424 12.1565 95.0304 11.9782 94.6961 11.8556C94.373 11.7331 94.0498 11.6718 93.7267 11.6718C93.3255 11.6718 93.0135 11.7721 92.7907 11.9726C92.579 12.1732 92.4731 12.4016 92.4731 12.6579C92.4731 12.8696 92.5456 13.0646 92.6904 13.2429C92.8464 13.4212 93.0804 13.5716 93.3924 13.6942L94.7295 14.1956C95.0415 14.307 95.3925 14.4686 95.7825 14.6803C96.1837 14.892 96.5291 15.1929 96.8188 15.5829C97.1085 15.9617 97.2534 16.4854 97.2534 17.154C97.2534 17.778 97.0974 18.3295 96.7854 18.8087C96.4734 19.2767 96.0444 19.6444 95.4984 19.9118C94.9635 20.1792 94.3451 20.3129 93.6431 20.3129Z" fill="white"/>
<path d="M104.162 20.3129C103.426 20.3129 102.73 20.1737 102.072 19.8951C101.426 19.6165 100.858 19.2377 100.367 18.7585C99.8771 18.2794 99.4927 17.7223 99.2141 17.0871C98.9356 16.4409 98.7963 15.7556 98.7963 15.0313C98.7963 14.307 98.9356 13.6273 99.2141 12.9922C99.4927 12.3459 99.8771 11.7832 100.367 11.3041C100.858 10.8249 101.426 10.4461 102.072 10.1675C102.73 9.88893 103.426 9.74965 104.162 9.74965C104.875 9.74965 105.543 9.87222 106.167 10.1174C106.791 10.3625 107.343 10.7023 107.822 11.1369L107.17 13.7443C106.891 13.2317 106.496 12.7972 105.983 12.4406C105.471 12.084 104.88 11.9058 104.212 11.9058C103.621 11.9058 103.092 12.045 102.624 12.3236C102.156 12.6022 101.783 12.981 101.504 13.4602C101.237 13.9282 101.103 14.4519 101.103 15.0313C101.103 15.5996 101.237 16.1233 101.504 16.6024C101.783 17.0816 102.156 17.4604 102.624 17.739C103.092 18.0175 103.621 18.1568 104.212 18.1568C104.88 18.1568 105.471 17.9841 105.983 17.6387C106.496 17.2821 106.891 16.842 107.17 16.3183L107.822 18.9257C107.343 19.3602 106.791 19.7001 106.167 19.9452C105.543 20.1904 104.875 20.3129 104.162 20.3129Z" fill="white"/>
<path d="M109.669 20.0455V4H112.026V11.1035C112.394 10.6689 112.828 10.3346 113.33 10.1006C113.842 9.86664 114.388 9.74965 114.968 9.74965C115.681 9.74965 116.344 9.92236 116.957 10.2678C117.57 10.6132 118.065 11.1146 118.444 11.772C118.834 12.4295 119.029 13.2262 119.029 14.1622V20.0455H116.673V14.4797C116.673 14.0229 116.578 13.5995 116.388 13.2095C116.21 12.8195 115.948 12.5075 115.603 12.2735C115.269 12.0283 114.851 11.9058 114.349 11.9058C113.948 11.9058 113.569 12.0005 113.213 12.1899C112.856 12.3793 112.566 12.6579 112.344 13.0256C112.132 13.3933 112.026 13.8669 112.026 14.4463V20.0455H109.669Z" fill="white"/>
<path d="M125.4 20.3129C124.698 20.3129 124.035 20.1402 123.411 19.7948C122.798 19.4494 122.297 18.948 121.907 18.2905C121.528 17.622 121.338 16.8253 121.338 15.9004V10.0171H123.695V15.5829C123.695 16.2626 123.896 16.8643 124.297 17.388C124.709 17.9005 125.283 18.1568 126.018 18.1568C126.419 18.1568 126.798 18.0621 127.155 17.8727C127.511 17.6721 127.796 17.3824 128.007 17.0036C128.23 16.6247 128.342 16.1623 128.342 15.6163V10.0171H130.698V20.0455H128.542V18.7084C128.186 19.221 127.729 19.6165 127.172 19.8951C126.626 20.1737 126.035 20.3129 125.4 20.3129Z" fill="white"/>
<path d="M133.425 20.0455V4H135.782V20.0455H133.425Z" fill="white"/>
<path d="M143.506 20.3129C142.682 20.3129 141.93 20.1792 141.25 19.9118C140.57 19.6332 139.98 19.2544 139.478 18.7753C138.977 18.2961 138.587 17.7278 138.308 17.0704C138.041 16.413 137.907 15.6999 137.907 14.931C137.907 14.1956 138.041 13.5159 138.308 12.8919C138.576 12.2568 138.944 11.7052 139.412 11.2372C139.891 10.7692 140.442 10.4071 141.066 10.1508C141.69 9.88336 142.364 9.74965 143.089 9.74965C144.047 9.74965 144.91 9.9725 145.679 10.4182C146.459 10.8639 147.072 11.4712 147.518 12.24C147.975 12.9978 148.203 13.8613 148.203 14.8307V15.6999H141.869C141.579 15.6999 141.295 15.6887 141.016 15.6664C140.738 15.633 140.465 15.594 140.197 15.5494C140.275 16.0731 140.465 16.5411 140.765 16.9534C141.077 17.3657 141.467 17.6888 141.935 17.9228C142.415 18.1457 142.949 18.2571 143.54 18.2571C144.175 18.2571 144.754 18.1234 145.278 17.856C145.813 17.5774 146.242 17.2264 146.565 16.803L147.133 19.1262C146.643 19.5051 146.086 19.8004 145.462 20.0121C144.838 20.2127 144.186 20.3129 143.506 20.3129ZM140.13 14.0786C140.42 14.0229 140.71 13.9839 140.999 13.9616C141.289 13.9282 141.579 13.9115 141.869 13.9115H144.426C144.704 13.9115 144.972 13.9226 145.228 13.9449C145.484 13.956 145.735 13.9839 145.98 14.0285C145.88 13.5605 145.69 13.1537 145.412 12.8083C145.133 12.4629 144.793 12.1955 144.392 12.006C143.991 11.8055 143.551 11.7052 143.072 11.7052C142.582 11.7052 142.136 11.811 141.735 12.0228C141.334 12.2233 140.994 12.5019 140.715 12.8585C140.448 13.2039 140.253 13.6106 140.13 14.0786Z" fill="white"/>
<path d="M155.722 20.0455V5.00285H160.753C162.034 5.00285 163.171 5.21456 164.162 5.63798C165.165 6.05026 166.007 6.61297 166.686 7.3261C167.377 8.03924 167.901 8.84708 168.257 9.74965C168.614 10.6411 168.792 11.5659 168.792 12.5242C168.792 13.4825 168.614 14.4129 168.257 15.3154C167.901 16.2069 167.377 17.0091 166.686 17.7223C166.007 18.4354 165.165 19.0037 164.162 19.4271C163.171 19.8394 162.034 20.0455 160.753 20.0455H155.722ZM158.129 17.8393H160.519C161.522 17.8393 162.38 17.6888 163.093 17.388C163.817 17.076 164.408 16.6637 164.864 16.1511C165.332 15.6386 165.678 15.0703 165.901 14.4463C166.124 13.8112 166.235 13.1705 166.235 12.5242C166.235 11.8779 166.124 11.2372 165.901 10.6021C165.678 9.96693 165.332 9.39308 164.864 8.88051C164.408 8.36795 163.817 7.96124 163.093 7.66038C162.38 7.35953 161.522 7.2091 160.519 7.2091H158.129V17.8393Z" fill="white"/>
<path d="M174.97 20.3129C174.268 20.3129 173.605 20.1402 172.981 19.7948C172.368 19.4494 171.867 18.948 171.477 18.2905C171.098 17.622 170.909 16.8253 170.909 15.9004V10.0171H173.265V15.5829C173.265 16.2626 173.466 16.8643 173.867 17.388C174.279 17.9005 174.853 18.1568 175.589 18.1568C175.99 18.1568 176.369 18.0621 176.725 17.8727C177.082 17.6721 177.366 17.3824 177.578 17.0036C177.8 16.6247 177.912 16.1623 177.912 15.6163V10.0171H180.269V20.0455H178.112V18.7084C177.756 19.221 177.299 19.6165 176.742 19.8951C176.196 20.1737 175.605 20.3129 174.97 20.3129Z" fill="white"/>
<path d="M187.391 20.2461C186.689 20.2461 186.038 20.1124 185.436 19.845C184.834 19.5664 184.305 19.1875 183.848 18.7084C183.391 18.2293 183.029 17.6777 182.762 17.0537C182.505 16.4186 182.377 15.7444 182.377 15.0313C182.377 14.3182 182.505 13.6496 182.762 13.0256C183.029 12.3905 183.391 11.8333 183.848 11.3542C184.305 10.8751 184.834 10.5018 185.436 10.2344C186.038 9.95579 186.689 9.8165 187.391 9.8165C188.06 9.8165 188.678 9.93907 189.247 10.1842C189.815 10.4294 190.305 10.7636 190.718 11.1871V10.0171H192.807V20.0455H190.718V18.8755C190.305 19.299 189.815 19.6332 189.247 19.8784C188.678 20.1235 188.06 20.2461 187.391 20.2461ZM187.676 18.1568C188.244 18.1568 188.756 18.0175 189.213 17.739C189.67 17.4493 190.032 17.0704 190.3 16.6024C190.578 16.1344 190.718 15.6107 190.718 15.0313C190.718 14.4519 190.578 13.9282 190.3 13.4602C190.032 12.9922 189.67 12.6189 189.213 12.3403C188.756 12.0506 188.244 11.9058 187.676 11.9058C187.107 11.9058 186.595 12.0506 186.138 12.3403C185.681 12.6189 185.313 12.9922 185.035 13.4602C184.767 13.9282 184.634 14.4519 184.634 15.0313C184.634 15.6107 184.767 16.1344 185.035 16.6024C185.313 17.0704 185.681 17.4493 186.138 17.739C186.595 18.0175 187.107 18.1568 187.676 18.1568Z" fill="white"/>
<path d="M195.523 20.0455V4H197.88V20.0455H195.523Z" fill="white"/>
<path d="M200.624 20.0455V10.0171H202.98V20.0455H200.624ZM201.794 8.37909C201.537 8.37909 201.303 8.31781 201.092 8.19524C200.891 8.07267 200.73 7.9111 200.607 7.71053C200.484 7.49882 200.423 7.26482 200.423 7.00854C200.423 6.74111 200.484 6.50711 200.607 6.30654C200.73 6.09483 200.891 5.93326 201.092 5.82184C201.303 5.69927 201.537 5.63798 201.794 5.63798C202.061 5.63798 202.295 5.69927 202.496 5.82184C202.707 5.93326 202.869 6.09483 202.98 6.30654C203.103 6.50711 203.164 6.74111 203.164 7.00854C203.164 7.26482 203.103 7.49882 202.98 7.71053C202.869 7.9111 202.707 8.07267 202.496 8.19524C202.295 8.31781 202.061 8.37909 201.794 8.37909Z" fill="white"/>
<path d="M208.649 20.3129C208.059 20.3129 207.44 20.2071 206.794 19.9954C206.159 19.7837 205.635 19.4717 205.223 19.0594L205.841 16.7027C206.153 17.193 206.571 17.5997 207.095 17.9228C207.63 18.2348 208.192 18.3908 208.783 18.3908C209.251 18.3908 209.596 18.2905 209.819 18.09C210.053 17.8783 210.17 17.622 210.17 17.3211C210.17 16.9646 210.048 16.7083 209.802 16.5523C209.568 16.3963 209.346 16.2793 209.134 16.2013L207.763 15.6664C207.485 15.555 207.156 15.399 206.777 15.1984C206.409 14.9979 206.086 14.7082 205.808 14.3293C205.54 13.9505 205.407 13.4546 205.407 12.8418C205.407 12.2846 205.54 11.772 205.808 11.3041C206.086 10.8361 206.476 10.4628 206.978 10.1842C207.49 9.8945 208.098 9.74965 208.8 9.74965C209.412 9.74965 210.014 9.8555 210.605 10.0672C211.195 10.2789 211.658 10.5686 211.992 10.9363L211.407 13.2262C211.184 12.903 210.928 12.6245 210.638 12.3905C210.348 12.1565 210.036 11.9782 209.702 11.8556C209.379 11.7331 209.056 11.6718 208.733 11.6718C208.332 11.6718 208.02 11.7721 207.797 11.9726C207.585 12.1732 207.479 12.4016 207.479 12.6579C207.479 12.8696 207.552 13.0646 207.696 13.2429C207.852 13.4212 208.086 13.5716 208.398 13.6942L209.736 14.1956C210.048 14.307 210.399 14.4686 210.789 14.6803C211.19 14.892 211.535 15.1929 211.825 15.5829C212.115 15.9617 212.259 16.4854 212.259 17.154C212.259 17.778 212.103 18.3295 211.791 18.8087C211.479 19.2767 211.05 19.6444 210.504 19.9118C209.97 20.1792 209.351 20.3129 208.649 20.3129Z" fill="white"/>
<path d="M218.817 20.2461C218.115 20.2461 217.463 20.1124 216.861 19.845C216.259 19.5664 215.73 19.1875 215.273 18.7084C214.816 18.2293 214.454 17.6777 214.187 17.0537C213.93 16.4186 213.802 15.7444 213.802 15.0313C213.802 14.3182 213.93 13.6496 214.187 13.0256C214.454 12.3905 214.816 11.8333 215.273 11.3542C215.73 10.8751 216.259 10.5018 216.861 10.2344C217.463 9.95579 218.115 9.8165 218.817 9.8165C219.485 9.8165 220.104 9.93907 220.672 10.1842C221.24 10.4294 221.73 10.7636 222.143 11.1871V10.0171H224.232V20.0455H222.143V18.8755C221.73 19.299 221.24 19.6332 220.672 19.8784C220.104 20.1235 219.485 20.2461 218.817 20.2461ZM219.101 18.1568C219.669 18.1568 220.182 18.0175 220.638 17.739C221.095 17.4493 221.457 17.0704 221.725 16.6024C222.003 16.1344 222.143 15.6107 222.143 15.0313C222.143 14.4519 222.003 13.9282 221.725 13.4602C221.457 12.9922 221.095 12.6189 220.638 12.3403C220.182 12.0506 219.669 11.9058 219.101 11.9058C218.532 11.9058 218.02 12.0506 217.563 12.3403C217.106 12.6189 216.738 12.9922 216.46 13.4602C216.192 13.9282 216.059 14.4519 216.059 15.0313C216.059 15.6107 216.192 16.1344 216.46 16.6024C216.738 17.0704 217.106 17.4493 217.563 17.739C218.02 18.0175 218.532 18.1568 219.101 18.1568Z" fill="white"/>
<path d="M50.2319 35.2073L53.1132 27.4573H53.1291L56.0104 35.2073H55.3498L54.3787 32.5406H51.8318L50.8607 35.2073H50.2319ZM52.0387 31.9823H54.1798L53.5351 30.2073C53.4449 29.9628 53.3679 29.7489 53.3042 29.5656C53.2406 29.3823 53.1742 29.1601 53.1053 28.8989C53.0363 29.1601 52.9699 29.3823 52.9063 29.5656C52.8479 29.7489 52.7736 29.9628 52.6834 30.2073L52.0387 31.9823Z" fill="white"/>
<path d="M61.9941 35.3073C61.559 35.3073 61.1716 35.2073 60.832 35.0073C60.4977 34.8073 60.2351 34.5267 60.0441 34.1656C59.8583 33.7989 59.7655 33.3684 59.7655 32.8739V27.7073H60.3863V32.8406C60.3863 33.2295 60.4553 33.5656 60.5932 33.8489C60.7312 34.1267 60.9222 34.3406 61.1663 34.4906C61.4104 34.6406 61.6916 34.7156 62.01 34.7156C62.3284 34.7156 62.6096 34.6434 62.8537 34.4989C63.1031 34.3489 63.2968 34.1351 63.4347 33.8573C63.5727 33.5795 63.6417 33.2517 63.6417 32.8739V27.7073H64.2386V32.8406C64.2386 33.3406 64.1431 33.7767 63.9521 34.1489C63.7611 34.5156 63.4984 34.8017 63.1641 35.0073C62.8298 35.2073 62.4398 35.3073 61.9941 35.3073Z" fill="white"/>
<path d="M69.018 35.2073V27.7073H72.4086V28.2989H69.6467V30.2906H72.1698V30.8739H69.6467V35.2156L69.018 35.2073Z" fill="white"/>
<path d="M81.8337 35.2073V27.7073H84.1897C84.7734 27.7073 85.296 27.8128 85.7577 28.0239C86.2193 28.2295 86.612 28.5101 86.9357 28.8656C87.2593 29.2156 87.5061 29.6156 87.6759 30.0656C87.8457 30.5156 87.9306 30.9795 87.9306 31.4573C87.9306 31.9351 87.8457 32.3989 87.6759 32.8489C87.5061 33.2989 87.2593 33.7017 86.9357 34.0573C86.612 34.4073 86.2193 34.6878 85.7577 34.8989C85.296 35.1045 84.7734 35.2073 84.1897 35.2073H81.8337ZM82.4625 34.6156H84.126C84.6407 34.6156 85.0944 34.5267 85.4871 34.3489C85.8797 34.1712 86.2087 33.9323 86.474 33.6323C86.7393 33.3267 86.9383 32.9878 87.071 32.6156C87.2089 32.2378 87.2779 31.8517 87.2779 31.4573C87.2779 31.0628 87.2089 30.6795 87.071 30.3073C86.9383 29.9295 86.7393 29.5906 86.474 29.2906C86.2087 28.9851 85.8797 28.7434 85.4871 28.5656C85.0944 28.3878 84.6407 28.2989 84.126 28.2989H82.4625V34.6156Z" fill="white"/>
<path d="M92.3438 35.2073V27.7073H95.7345V28.2989H92.9726V30.2906H95.1773V30.8739H92.9726V34.6156H95.7345V35.2073H92.3438Z" fill="white"/>
<path d="M100.145 35.2073V27.4573H100.161L103.377 32.1156L106.56 27.4573H106.576V35.2073H105.948V31.0989C105.948 30.8212 105.95 30.5351 105.955 30.2406C105.961 29.9406 105.971 29.6239 105.987 29.2906C105.807 29.5851 105.629 29.8628 105.454 30.1239C105.279 30.3795 105.109 30.6239 104.945 30.8573L103.353 33.1906L101.737 30.8573C101.573 30.6239 101.405 30.3795 101.236 30.1239C101.066 29.8684 100.888 29.5906 100.702 29.2906C100.724 29.6295 100.734 29.9489 100.734 30.2489C100.739 30.5434 100.742 30.8267 100.742 31.0989V35.2073H100.145Z" fill="white"/>
<path d="M116.794 35.2073V27.7073H118.481C118.9 27.7073 119.264 27.7962 119.571 27.9739C119.884 28.1517 120.126 28.3906 120.296 28.6906C120.471 28.9906 120.558 29.3184 120.558 29.6739C120.558 29.9684 120.5 30.2406 120.383 30.4906C120.267 30.7351 120.102 30.9462 119.89 31.1239C119.678 31.2962 119.428 31.4267 119.142 31.5156L121.649 35.2073H120.901L118.473 31.6156H117.414V35.2073H116.794ZM117.414 31.0739H118.417C118.757 31.0739 119.041 31.0101 119.269 30.8823C119.497 30.7489 119.67 30.5767 119.786 30.3656C119.903 30.1489 119.961 29.9184 119.961 29.6739C119.961 29.4128 119.898 29.1767 119.77 28.9656C119.648 28.7545 119.476 28.5906 119.253 28.4739C119.03 28.3517 118.768 28.2906 118.465 28.2906H117.414V31.0739Z" fill="white"/>
<path d="M125.783 35.2073V27.7073H126.411V35.2073H125.783Z" fill="white"/>
<path d="M134.599 35.3323C134.089 35.3323 133.612 35.2323 133.166 35.0323C132.72 34.8267 132.33 34.5489 131.996 34.1989C131.662 33.8434 131.399 33.4323 131.208 32.9656C131.017 32.4934 130.921 31.9906 130.921 31.4573C130.921 30.9239 131.017 30.4239 131.208 29.9573C131.399 29.4851 131.662 29.0739 131.996 28.7239C132.33 28.3684 132.72 28.0906 133.166 27.8906C133.612 27.6851 134.089 27.5823 134.599 27.5823C135.103 27.5823 135.575 27.6823 136.015 27.8823C136.461 28.0767 136.851 28.3434 137.185 28.6823L137.002 29.4823C136.732 29.0934 136.387 28.7851 135.968 28.5573C135.554 28.3239 135.097 28.2073 134.599 28.2073C134.174 28.2073 133.779 28.2906 133.413 28.4573C133.047 28.6239 132.726 28.8573 132.45 29.1573C132.174 29.4573 131.959 29.8045 131.805 30.1989C131.651 30.5878 131.574 31.0073 131.574 31.4573C131.574 31.9073 131.651 32.3295 131.805 32.7239C131.959 33.1128 132.174 33.4573 132.45 33.7573C132.726 34.0573 133.047 34.2906 133.413 34.4573C133.779 34.6239 134.174 34.7073 134.599 34.7073C135.097 34.7073 135.554 34.5906 135.968 34.3573C136.387 34.1239 136.732 33.8156 137.002 33.4323L137.177 34.2073C136.848 34.5517 136.461 34.8267 136.015 35.0323C135.575 35.2323 135.103 35.3323 134.599 35.3323Z" fill="white"/>
<path d="M141.413 35.2073V27.7073H142.042V30.2906H144.907V27.7073H145.536V35.2073H144.907V30.8739H142.042V35.2073H141.413Z" fill="white"/>
<path d="M151.844 35.2073V28.2989H149.854V27.7073H154.454V28.2989H152.464V35.2073H151.844Z" fill="white"/>
<path d="M158.869 35.2073V27.7073H159.497V35.2073H158.869Z" fill="white"/>
<path d="M167.724 35.3323C167.204 35.3323 166.719 35.2323 166.268 35.0323C165.822 34.8323 165.429 34.5545 165.09 34.1989C164.75 33.8434 164.485 33.4323 164.294 32.9656C164.103 32.4989 164.007 31.9989 164.007 31.4656C164.007 30.9267 164.103 30.4239 164.294 29.9573C164.485 29.4906 164.748 29.0795 165.082 28.7239C165.416 28.3628 165.804 28.0823 166.244 27.8823C166.69 27.6823 167.167 27.5823 167.677 27.5823C168.175 27.5823 168.648 27.6795 169.093 27.8739C169.539 28.0684 169.932 28.3378 170.271 28.6823L170.088 29.4823C169.812 29.0878 169.465 28.7767 169.046 28.5489C168.626 28.3212 168.173 28.2073 167.685 28.2073C167.26 28.2073 166.865 28.2906 166.499 28.4573C166.133 28.6239 165.811 28.8573 165.536 29.1573C165.26 29.4573 165.045 29.8017 164.891 30.1906C164.737 30.5795 164.66 31.0017 164.66 31.4573C164.66 31.9073 164.737 32.3295 164.891 32.7239C165.045 33.1128 165.26 33.4573 165.536 33.7573C165.817 34.0573 166.143 34.2906 166.515 34.4573C166.886 34.6239 167.292 34.7073 167.732 34.7073C168.072 34.7073 168.396 34.6601 168.703 34.5656C169.011 34.4656 169.295 34.3267 169.555 34.1489V31.9239H167.287V31.3406H170.144V34.4656C169.82 34.7489 169.449 34.9656 169.03 35.1156C168.611 35.2601 168.175 35.3323 167.724 35.3323Z" fill="white"/>
<path d="M174.891 35.2073V27.7073H178.281V28.2989H175.52V30.2906H177.724V30.8739H175.52V34.6156H178.281V35.2073H174.891Z" fill="white"/>
<path d="M188.391 35.4573L183.289 29.1656V35.2073H182.692V27.4573H182.708L187.81 33.7489V27.7073H188.407V35.4573H188.391Z" fill="white"/>
<path d="M200.399 35.4573L197.693 27.7073H198.338L200.097 32.7073C200.155 32.8795 200.211 33.0489 200.264 33.2156C200.317 33.3823 200.37 33.5684 200.423 33.7739C200.471 33.5684 200.516 33.3823 200.558 33.2156C200.606 33.0489 200.657 32.8795 200.71 32.7073L202.309 27.4573H202.325L203.933 32.7073C203.981 32.8739 204.029 33.0406 204.076 33.2073C204.124 33.3739 204.172 33.5628 204.22 33.7739C204.273 33.5628 204.326 33.3739 204.379 33.2073C204.437 33.0406 204.496 32.8739 204.554 32.7073L206.305 27.7073H206.91L204.204 35.4573H204.188L202.572 30.1489C202.524 29.9934 202.479 29.8378 202.437 29.6823C202.394 29.5212 202.349 29.3351 202.301 29.1239C202.259 29.3351 202.214 29.5212 202.166 29.6823C202.124 29.8378 202.079 29.9934 202.031 30.1489L200.415 35.4573H200.399Z" fill="white"/>
<path d="M210.943 35.2073V27.7073H214.334V28.2989H211.572V30.2906H213.776V30.8739H211.572V34.6156H214.334V35.2073H210.943Z" fill="white"/>
<path d="M221.685 35.3323C221.165 35.3323 220.679 35.2323 220.228 35.0323C219.783 34.8323 219.39 34.5545 219.05 34.1989C218.711 33.8434 218.445 33.4323 218.254 32.9656C218.063 32.4989 217.968 31.9989 217.968 31.4656C217.968 30.9267 218.063 30.4239 218.254 29.9573C218.445 29.4906 218.708 29.0795 219.042 28.7239C219.377 28.3628 219.764 28.0823 220.205 27.8823C220.65 27.6823 221.128 27.5823 221.637 27.5823C222.136 27.5823 222.608 27.6795 223.054 27.8739C223.5 28.0684 223.892 28.3378 224.232 28.6823L224.049 29.4823C223.773 29.0878 223.425 28.7767 223.006 28.5489C222.587 28.3212 222.133 28.2073 221.645 28.2073C221.221 28.2073 220.825 28.2906 220.459 28.4573C220.093 28.6239 219.772 28.8573 219.496 29.1573C219.22 29.4573 219.005 29.8017 218.851 30.1906C218.698 30.5795 218.621 31.0017 218.621 31.4573C218.621 31.9073 218.698 32.3295 218.851 32.7239C219.005 33.1128 219.22 33.4573 219.496 33.7573C219.777 34.0573 220.104 34.2906 220.475 34.4573C220.847 34.6239 221.252 34.7073 221.693 34.7073C222.033 34.7073 222.356 34.6601 222.664 34.5656C222.972 34.4656 223.256 34.3267 223.516 34.1489V31.9239H221.247V31.3406H224.105V34.4656C223.781 34.7489 223.409 34.9656 222.99 35.1156C222.571 35.2601 222.136 35.3323 221.685 35.3323Z" fill="white"/>
</svg>
